# xmcd CD database file
#
# Track frame offsets:
#	150
#	17056
#	31208
#	44950
#	61110
#	74754
#	89664
#	107501
#	123101
#	134715
#	144601
#	158551
#
# Disc length: 2284 seconds
#
# Revision: 0
# Processed by: cddbd v1.5.2PL0 Copyright (c) Steve Scherf et al.
# Submitted via: CDex 1.99
#
DISCID=ae08ea0c
DTITLE=Billie Holiday - Lady Sings The Blues
DYEAR=1900
DGENRE=Jazz
TTITLE0=Lady Sings the Blues
TTITLE1=Trav'lin Light
TTITLE2=I Must Have That Man
TTITLE3=Some Other Spring
TTITLE4=Strange Fruit
TTITLE5=No Good Man
TTITLE6=God Bless the Child
TTITLE7=Good Morning Heartache
TTITLE8=Love Me Or Leave Me
TTITLE9=Too Marvelous For Words
TTITLE10=Willow Weep For Me
TTITLE11=I Thought About You
EXTD=
EXTT0=
EXTT1=
EXTT2=
EXTT3=
EXTT4=
EXTT5=
EXTT6=
EXTT7=
EXTT8=
EXTT9=
EXTT10=
EXTT11=
PLAYORDER=
